%TF.GenerationSoftware,KiCad,Pcbnew,10.0.3-10.0.3~ubuntu26.04.1*%
%TF.CreationDate,2026-06-16T21:36:29+05:30*%
%TF.ProjectId,heart,68656172-742e-46b6-9963-61645f706362,rev?*%
%TF.SameCoordinates,Original*%
%TF.FileFunction,Copper,L1,Top*%
%TF.FilePolarity,Positive*%
%FSLAX46Y46*%
G04 Gerber Fmt 4.6, Leading zero omitted, Abs format (unit mm)*
G04 Created by KiCad (PCBNEW 10.0.3-10.0.3~ubuntu26.04.1) date 2026-06-16 21:36:29*
%MOMM*%
%LPD*%
G01*
G04 APERTURE LIST*
G04 Aperture macros list*
%AMRoundRect*
0 Rectangle with rounded corners*
0 $1 Rounding radius*
0 $2 $3 $4 $5 $6 $7 $8 $9 X,Y pos of 4 corners*
0 Add a 4 corners polygon primitive as box body*
4,1,4,$2,$3,$4,$5,$6,$7,$8,$9,$2,$3,0*
0 Add four circle primitives for the rounded corners*
1,1,$1+$1,$2,$3*
1,1,$1+$1,$4,$5*
1,1,$1+$1,$6,$7*
1,1,$1+$1,$8,$9*
0 Add four rect primitives between the rounded corners*
20,1,$1+$1,$2,$3,$4,$5,0*
20,1,$1+$1,$4,$5,$6,$7,0*
20,1,$1+$1,$6,$7,$8,$9,0*
20,1,$1+$1,$8,$9,$2,$3,0*%
G04 Aperture macros list end*
%TA.AperFunction,ComponentPad*%
%ADD10R,1.800000X1.800000*%
%TD*%
%TA.AperFunction,ComponentPad*%
%ADD11C,1.800000*%
%TD*%
%TA.AperFunction,SMDPad,CuDef*%
%ADD12RoundRect,0.250000X-0.450000X0.262500X-0.450000X-0.262500X0.450000X-0.262500X0.450000X0.262500X0*%
%TD*%
%TA.AperFunction,SMDPad,CuDef*%
%ADD13RoundRect,0.150000X-0.825000X-0.150000X0.825000X-0.150000X0.825000X0.150000X-0.825000X0.150000X0*%
%TD*%
%TA.AperFunction,SMDPad,CuDef*%
%ADD14RoundRect,0.250000X0.450000X-0.262500X0.450000X0.262500X-0.450000X0.262500X-0.450000X-0.262500X0*%
%TD*%
%TA.AperFunction,SMDPad,CuDef*%
%ADD15RoundRect,0.250000X-0.250000X-0.475000X0.250000X-0.475000X0.250000X0.475000X-0.250000X0.475000X0*%
%TD*%
%TA.AperFunction,SMDPad,CuDef*%
%ADD16RoundRect,0.250000X-0.262500X-0.450000X0.262500X-0.450000X0.262500X0.450000X-0.262500X0.450000X0*%
%TD*%
%TA.AperFunction,ComponentPad*%
%ADD17R,2.100000X2.100000*%
%TD*%
%TA.AperFunction,ComponentPad*%
%ADD18C,2.100000*%
%TD*%
%TA.AperFunction,SMDPad,CuDef*%
%ADD19R,1.000000X0.800000*%
%TD*%
%TA.AperFunction,SMDPad,CuDef*%
%ADD20R,0.700000X1.500000*%
%TD*%
%TA.AperFunction,ComponentPad*%
%ADD21O,1.600000X1.200000*%
%TD*%
%TA.AperFunction,ComponentPad*%
%ADD22C,1.200000*%
%TD*%
%TA.AperFunction,ViaPad*%
%ADD23C,0.700000*%
%TD*%
%TA.AperFunction,Conductor*%
%ADD24C,0.200000*%
%TD*%
G04 APERTURE END LIST*
D10*
%TO.P,D14,1,K*%
%TO.N,GND*%
X187960000Y-78500000D03*
D11*
%TO.P,D14,2,A*%
%TO.N,Net-(D14-A)*%
X190500000Y-78500000D03*
%TD*%
D10*
%TO.P,D11,1,K*%
%TO.N,GND*%
X181960000Y-84000000D03*
D11*
%TO.P,D11,2,A*%
%TO.N,Net-(D11-A)*%
X184500000Y-84000000D03*
%TD*%
D12*
%TO.P,R9,1*%
%TO.N,Net-(Q1-C)*%
X153583332Y-58500000D03*
%TO.P,R9,2*%
%TO.N,Net-(D1-A)*%
X153583332Y-60325000D03*
%TD*%
D10*
%TO.P,D13,1,K*%
%TO.N,GND*%
X193960000Y-72500000D03*
D11*
%TO.P,D13,2,A*%
%TO.N,Net-(D13-A)*%
X196500000Y-72500000D03*
%TD*%
D13*
%TO.P,U1,1,GND*%
%TO.N,GND*%
X181203000Y-95824000D03*
%TO.P,U1,2,TR*%
%TO.N,Net-(U1-TR)*%
X181203000Y-97094000D03*
%TO.P,U1,3,Q*%
%TO.N,Net-(U1-Q)*%
X181203000Y-98364000D03*
%TO.P,U1,4,R*%
%TO.N,Net-(SW1-B)*%
X181203000Y-99634000D03*
%TO.P,U1,5,CV*%
%TO.N,Net-(U1-CV)*%
X186153000Y-99634000D03*
%TO.P,U1,6,THR*%
%TO.N,GND*%
X186153000Y-98364000D03*
%TO.P,U1,7,DIS*%
%TO.N,Net-(U1-DIS)*%
X186153000Y-97094000D03*
%TO.P,U1,8,VCC*%
%TO.N,Net-(SW1-B)*%
X186153000Y-95824000D03*
%TD*%
D12*
%TO.P,R15,1*%
%TO.N,Net-(Q1-C)*%
X211250000Y-83750000D03*
%TO.P,R15,2*%
%TO.N,Net-(D11-A)*%
X211250000Y-85575000D03*
%TD*%
D14*
%TO.P,R14,1*%
%TO.N,Net-(Q1-C)*%
X153749998Y-73108332D03*
%TO.P,R14,2*%
%TO.N,Net-(D9-A)*%
X153749998Y-71283332D03*
%TD*%
%TO.P,R13,1*%
%TO.N,Net-(Q1-C)*%
X153750000Y-66750000D03*
%TO.P,R13,2*%
%TO.N,Net-(D8-A)*%
X153750000Y-64925000D03*
%TD*%
D10*
%TO.P,D1,1,K*%
%TO.N,GND*%
X163000000Y-59500000D03*
D11*
%TO.P,D1,2,A*%
%TO.N,Net-(D1-A)*%
X160460000Y-59500000D03*
%TD*%
D15*
%TO.P,C2,1*%
%TO.N,Net-(U1-CV)*%
X189740000Y-99700000D03*
%TO.P,C2,2*%
%TO.N,GND*%
X191640000Y-99700000D03*
%TD*%
D16*
%TO.P,R2,1*%
%TO.N,Net-(U1-TR)*%
X180925000Y-93500000D03*
%TO.P,R2,2*%
%TO.N,GND*%
X182750000Y-93500000D03*
%TD*%
D14*
%TO.P,R3,1*%
%TO.N,Net-(U1-Q)*%
X177328000Y-100697000D03*
%TO.P,R3,2*%
%TO.N,Net-(Q1-B)*%
X177328000Y-98872000D03*
%TD*%
D12*
%TO.P,R12,1*%
%TO.N,Net-(Q1-C)*%
X211312500Y-58337500D03*
%TO.P,R12,2*%
%TO.N,Net-(D7-A)*%
X211312500Y-60162500D03*
%TD*%
D17*
%TO.P,BT1,1,+*%
%TO.N,GND*%
X224750000Y-104000000D03*
D18*
%TO.P,BT1,2,-*%
%TO.N,Net-(BT1--)*%
X204750000Y-104000000D03*
%TD*%
D12*
%TO.P,R5,1*%
%TO.N,Net-(Q1-C)*%
X176000000Y-45675000D03*
%TO.P,R5,2*%
%TO.N,Net-(D3-A)*%
X176000000Y-47500000D03*
%TD*%
D10*
%TO.P,D12,1,K*%
%TO.N,GND*%
X198960000Y-66500000D03*
D11*
%TO.P,D12,2,A*%
%TO.N,Net-(D12-A)*%
X201500000Y-66500000D03*
%TD*%
D12*
%TO.P,R17,1*%
%TO.N,Net-(Q1-C)*%
X211375000Y-72175000D03*
%TO.P,R17,2*%
%TO.N,Net-(D13-A)*%
X211375000Y-74000000D03*
%TD*%
D19*
%TO.P,SW1,*%
%TO.N,*%
X190450000Y-114750000D03*
X190450000Y-116960000D03*
X197750000Y-114750000D03*
X197750000Y-116960000D03*
D20*
%TO.P,SW1,1,B*%
%TO.N,Net-(SW1-B)*%
X191850000Y-114100000D03*
%TO.P,SW1,2,C*%
%TO.N,Net-(BT1--)*%
X194850000Y-114100000D03*
%TO.P,SW1,3,A*%
%TO.N,GND*%
X196350000Y-114100000D03*
%TD*%
D12*
%TO.P,R11,1*%
%TO.N,Net-(Q1-C)*%
X198500000Y-45675000D03*
%TO.P,R11,2*%
%TO.N,Net-(D6-A)*%
X198500000Y-47500000D03*
%TD*%
%TO.P,R7,1*%
%TO.N,Net-(Q1-C)*%
X184500000Y-45675000D03*
%TO.P,R7,2*%
%TO.N,Net-(D4-A)*%
X184500000Y-47500000D03*
%TD*%
D10*
%TO.P,D2,1,K*%
%TO.N,GND*%
X166960000Y-54000000D03*
D11*
%TO.P,D2,2,A*%
%TO.N,Net-(D2-A)*%
X169500000Y-54000000D03*
%TD*%
D10*
%TO.P,D6,1,K*%
%TO.N,GND*%
X196960000Y-54000000D03*
D11*
%TO.P,D6,2,A*%
%TO.N,Net-(D6-A)*%
X199500000Y-54000000D03*
%TD*%
D12*
%TO.P,R1,1*%
%TO.N,Net-(U1-DIS)*%
X190028000Y-95697000D03*
%TO.P,R1,2*%
%TO.N,GND*%
X190028000Y-97522000D03*
%TD*%
%TO.P,R10,1*%
%TO.N,Net-(Q1-C)*%
X190000000Y-45675000D03*
%TO.P,R10,2*%
%TO.N,Net-(D5-A)*%
X190000000Y-47500000D03*
%TD*%
%TO.P,R16,1*%
%TO.N,Net-(Q1-C)*%
X211500000Y-65500000D03*
%TO.P,R16,2*%
%TO.N,Net-(D12-A)*%
X211500000Y-67325000D03*
%TD*%
D10*
%TO.P,D5,1,K*%
%TO.N,GND*%
X188460000Y-54000000D03*
D11*
%TO.P,D5,2,A*%
%TO.N,Net-(D5-A)*%
X191000000Y-54000000D03*
%TD*%
D14*
%TO.P,R6,1*%
%TO.N,Net-(Q1-C)*%
X153750000Y-79412500D03*
%TO.P,R6,2*%
%TO.N,Net-(D10-A)*%
X153750000Y-77587500D03*
%TD*%
D10*
%TO.P,D10,1,K*%
%TO.N,GND*%
X178500000Y-78500000D03*
D11*
%TO.P,D10,2,A*%
%TO.N,Net-(D10-A)*%
X175960000Y-78500000D03*
%TD*%
D21*
%TO.P,Q1,1,E*%
%TO.N,GND*%
X169100000Y-96200000D03*
D22*
%TO.P,Q1,2,B*%
%TO.N,Net-(Q1-B)*%
X170370000Y-97470000D03*
%TO.P,Q1,3,C*%
%TO.N,Net-(Q1-C)*%
X171640000Y-96200000D03*
%TD*%
D10*
%TO.P,D7,1,K*%
%TO.N,GND*%
X203460000Y-60000000D03*
D11*
%TO.P,D7,2,A*%
%TO.N,Net-(D7-A)*%
X206000000Y-60000000D03*
%TD*%
D12*
%TO.P,R18,1*%
%TO.N,Net-(Q1-C)*%
X211437500Y-78000000D03*
%TO.P,R18,2*%
%TO.N,Net-(D14-A)*%
X211437500Y-79825000D03*
%TD*%
D10*
%TO.P,D3,1,K*%
%TO.N,GND*%
X175460000Y-54000000D03*
D11*
%TO.P,D3,2,A*%
%TO.N,Net-(D3-A)*%
X178000000Y-54000000D03*
%TD*%
D10*
%TO.P,D9,1,K*%
%TO.N,GND*%
X173250000Y-72250000D03*
D11*
%TO.P,D9,2,A*%
%TO.N,Net-(D9-A)*%
X170710000Y-72250000D03*
%TD*%
D10*
%TO.P,D4,1,K*%
%TO.N,GND*%
X181960000Y-59500000D03*
D11*
%TO.P,D4,2,A*%
%TO.N,Net-(D4-A)*%
X184500000Y-59500000D03*
%TD*%
D10*
%TO.P,D8,1,K*%
%TO.N,GND*%
X168000000Y-66000000D03*
D11*
%TO.P,D8,2,A*%
%TO.N,Net-(D8-A)*%
X165460000Y-66000000D03*
%TD*%
D12*
%TO.P,R4,1*%
%TO.N,Net-(Q1-C)*%
X168000000Y-45675000D03*
%TO.P,R4,2*%
%TO.N,Net-(D2-A)*%
X168000000Y-47500000D03*
%TD*%
D15*
%TO.P,C1,1*%
%TO.N,Net-(U1-TR)*%
X176063000Y-93665000D03*
%TO.P,C1,2*%
%TO.N,GND*%
X177963000Y-93665000D03*
%TD*%
D23*
%TO.N,GND*%
X166500000Y-96250000D03*
X184250000Y-89250000D03*
%TD*%
%TO.N,GND*%
D24*
X169000000Y-58500000D02*
X173500000Y-58500000D01*
X187460000Y-78500000D02*
X181960000Y-84000000D01*
X182750000Y-94277000D02*
X181203000Y-95824000D01*
X187960000Y-78500000D02*
X193960000Y-72500000D01*
X189250000Y-90500000D02*
X186500000Y-90500000D01*
X188750000Y-54000000D02*
X192500000Y-57750000D01*
X178500000Y-80540000D02*
X181960000Y-84000000D01*
X188460000Y-61290000D02*
X186500000Y-63250000D01*
X166960000Y-56460000D02*
X169000000Y-58500000D01*
X178500000Y-78500000D02*
X178500000Y-80540000D01*
X175460000Y-56540000D02*
X175460000Y-54000000D01*
X168000000Y-67000000D02*
X168000000Y-66000000D01*
X193960000Y-72500000D02*
X198960000Y-67500000D01*
X192750000Y-98250000D02*
X192375000Y-97875000D01*
X189186000Y-98364000D02*
X190028000Y-97522000D01*
X178500000Y-77500000D02*
X173250000Y-72250000D01*
X183750000Y-93500000D02*
X186500000Y-90750000D01*
X196000000Y-57500000D02*
X196960000Y-56540000D01*
X176250000Y-59500000D02*
X174375000Y-57625000D01*
X163000000Y-59500000D02*
X163000000Y-57960000D01*
X192375000Y-97875000D02*
X192022000Y-97522000D01*
X187960000Y-78500000D02*
X187460000Y-78500000D01*
X183250000Y-63000000D02*
X181960000Y-61710000D01*
X217450000Y-99700000D02*
X221375000Y-103625000D01*
X192022000Y-97522000D02*
X190028000Y-97522000D01*
X182750000Y-93500000D02*
X182750000Y-94277000D01*
X168000000Y-66000000D02*
X168000000Y-64500000D01*
X192375000Y-97875000D02*
X192375000Y-93625000D01*
X166960000Y-54000000D02*
X166960000Y-56460000D01*
X185500000Y-89250000D02*
X181960000Y-85710000D01*
X183250000Y-63250000D02*
X183250000Y-63000000D01*
X198960000Y-67500000D02*
X198960000Y-66500000D01*
X181960000Y-61710000D02*
X181960000Y-59500000D01*
X173500000Y-58500000D02*
X174375000Y-57625000D01*
X191640000Y-99700000D02*
X217450000Y-99700000D01*
X186153000Y-98364000D02*
X189186000Y-98364000D01*
X186500000Y-90500000D02*
X186500000Y-90250000D01*
X182750000Y-93500000D02*
X183750000Y-93500000D01*
X181960000Y-59500000D02*
X176250000Y-59500000D01*
X191640000Y-99700000D02*
X192750000Y-98590000D01*
X178500000Y-78500000D02*
X178500000Y-77500000D01*
X196350000Y-114100000D02*
X196900000Y-114100000D01*
X203460000Y-60000000D02*
X198500000Y-60000000D01*
X221375000Y-103625000D02*
X221375000Y-104375000D01*
X198500000Y-60000000D02*
X196000000Y-57500000D01*
X163000000Y-57960000D02*
X166960000Y-54000000D01*
X188460000Y-54000000D02*
X188460000Y-61290000D01*
X214250000Y-111500000D02*
X221375000Y-104375000D01*
X174375000Y-57625000D02*
X175460000Y-56540000D01*
X186500000Y-90750000D02*
X186500000Y-90500000D01*
X192750000Y-98590000D02*
X192750000Y-98250000D01*
X186500000Y-90250000D02*
X185500000Y-89250000D01*
X209000000Y-101990000D02*
X208995000Y-101995000D01*
X185250000Y-89500000D02*
X184500000Y-89500000D01*
X192375000Y-93625000D02*
X189250000Y-90500000D01*
X180122000Y-95824000D02*
X181203000Y-95824000D01*
X168000000Y-64500000D02*
X163000000Y-59500000D01*
X177963000Y-93665000D02*
X180122000Y-95824000D01*
X185500000Y-89250000D02*
X185250000Y-89500000D01*
X181960000Y-85710000D02*
X181960000Y-84000000D01*
X186500000Y-63250000D02*
X183250000Y-63250000D01*
X166550000Y-96200000D02*
X166500000Y-96250000D01*
X173250000Y-72250000D02*
X168000000Y-67000000D01*
X198960000Y-64500000D02*
X203460000Y-60000000D01*
X192500000Y-57750000D02*
X195750000Y-57750000D01*
X188460000Y-54000000D02*
X188750000Y-54000000D01*
X198950000Y-111500000D02*
X214250000Y-111500000D01*
X184500000Y-89500000D02*
X184250000Y-89250000D01*
X221750000Y-104000000D02*
X224750000Y-104000000D01*
X169100000Y-96200000D02*
X166550000Y-96200000D01*
X196960000Y-56540000D02*
X196960000Y-54000000D01*
X221375000Y-104375000D02*
X221750000Y-104000000D01*
X198960000Y-66500000D02*
X198960000Y-64500000D01*
X196350000Y-114100000D02*
X198950000Y-111500000D01*
X195750000Y-57750000D02*
X196000000Y-57500000D01*
%TO.N,Net-(U1-TR)*%
X176063000Y-91937000D02*
X176063000Y-93665000D01*
X176250000Y-91250000D02*
X176250000Y-91750000D01*
X180925000Y-93500000D02*
X180925000Y-92175000D01*
X180925000Y-92175000D02*
X179750000Y-91000000D01*
X177094000Y-97094000D02*
X181203000Y-97094000D01*
X179750000Y-91000000D02*
X176500000Y-91000000D01*
X176063000Y-93665000D02*
X176063000Y-96063000D01*
X176063000Y-96063000D02*
X177094000Y-97094000D01*
X176500000Y-91000000D02*
X176250000Y-91250000D01*
X176250000Y-91750000D02*
X176063000Y-91937000D01*
%TO.N,Net-(U1-CV)*%
X189674000Y-99634000D02*
X189740000Y-99700000D01*
X186153000Y-99634000D02*
X189674000Y-99634000D01*
%TO.N,Net-(D1-A)*%
X159635000Y-60325000D02*
X160460000Y-59500000D01*
X153500000Y-60325000D02*
X159635000Y-60325000D01*
%TO.N,Net-(D2-A)*%
X168000000Y-47500000D02*
X168000000Y-52500000D01*
X168000000Y-52500000D02*
X169500000Y-54000000D01*
%TO.N,Net-(D3-A)*%
X178250000Y-48750000D02*
X178000000Y-49000000D01*
X178000000Y-49000000D02*
X178000000Y-54000000D01*
X176000000Y-47500000D02*
X177500000Y-47500000D01*
X178250000Y-48250000D02*
X178250000Y-48750000D01*
X177500000Y-47500000D02*
X178250000Y-48250000D01*
%TO.N,Net-(D4-A)*%
X184500000Y-47500000D02*
X184500000Y-59500000D01*
%TO.N,Net-(D5-A)*%
X191750000Y-48000000D02*
X191750000Y-48500000D01*
X190000000Y-47500000D02*
X191250000Y-47500000D01*
X191750000Y-48500000D02*
X191000000Y-49250000D01*
X191000000Y-49250000D02*
X191000000Y-54000000D01*
X191250000Y-47500000D02*
X191750000Y-48000000D01*
%TO.N,Net-(D6-A)*%
X198500000Y-53000000D02*
X199500000Y-54000000D01*
X198500000Y-47500000D02*
X198500000Y-53000000D01*
%TO.N,Net-(D7-A)*%
X206162500Y-60162500D02*
X206000000Y-60000000D01*
X211250000Y-60162500D02*
X206162500Y-60162500D01*
%TO.N,Net-(D8-A)*%
X164385000Y-64925000D02*
X165460000Y-66000000D01*
X153750000Y-64925000D02*
X164385000Y-64925000D01*
%TO.N,Net-(D9-A)*%
X169743332Y-71283332D02*
X170710000Y-72250000D01*
X153749998Y-71283332D02*
X169743332Y-71283332D01*
%TO.N,Net-(D10-A)*%
X153750000Y-77587500D02*
X175047500Y-77587500D01*
X175047500Y-77587500D02*
X175960000Y-78500000D01*
%TO.N,Net-(D11-A)*%
X211250000Y-85575000D02*
X186075000Y-85575000D01*
X186075000Y-85575000D02*
X184500000Y-84000000D01*
%TO.N,Net-(D12-A)*%
X202325000Y-67325000D02*
X201500000Y-66500000D01*
X211500000Y-67325000D02*
X202325000Y-67325000D01*
%TO.N,Net-(D13-A)*%
X198000000Y-74000000D02*
X196500000Y-72500000D01*
X211375000Y-74000000D02*
X198000000Y-74000000D01*
%TO.N,Net-(D14-A)*%
X211437500Y-79825000D02*
X191825000Y-79825000D01*
X191825000Y-79825000D02*
X190500000Y-78500000D01*
%TO.N,Net-(BT1--)*%
X194850000Y-114100000D02*
X194850000Y-107900000D01*
X204750000Y-104000000D02*
X198750000Y-104000000D01*
X198750000Y-104000000D02*
X194850000Y-107900000D01*
%TO.N,Net-(Q1-B)*%
X177328000Y-98872000D02*
X171772000Y-98872000D01*
X171772000Y-98872000D02*
X170370000Y-97470000D01*
%TO.N,Net-(Q1-C)*%
X216000000Y-72250000D02*
X216000000Y-77750000D01*
X171640000Y-92140000D02*
X171640000Y-96200000D01*
X149750000Y-76750000D02*
X149750000Y-73000000D01*
X216000000Y-59000000D02*
X216000000Y-65500000D01*
X149750000Y-66500000D02*
X149750000Y-62333332D01*
X211162500Y-58337500D02*
X211312500Y-58337500D01*
X153750000Y-79412500D02*
X158912500Y-79412500D01*
X211500000Y-65500000D02*
X216000000Y-65500000D01*
X215337500Y-58337500D02*
X216000000Y-59000000D01*
X211375000Y-72175000D02*
X215925000Y-72175000D01*
X184500000Y-45675000D02*
X190000000Y-45675000D01*
X159000000Y-46000000D02*
X159325000Y-45675000D01*
X153749998Y-73108332D02*
X149858332Y-73108332D01*
X149750000Y-62333332D02*
X153583332Y-58500000D01*
X159325000Y-45675000D02*
X168000000Y-45675000D01*
X168000000Y-45675000D02*
X176000000Y-45675000D01*
X190000000Y-45675000D02*
X198500000Y-45675000D01*
X176000000Y-45675000D02*
X184500000Y-45675000D01*
X215750000Y-78000000D02*
X216000000Y-77750000D01*
X158912500Y-79412500D02*
X171640000Y-92140000D01*
X216000000Y-77750000D02*
X216000000Y-79000000D01*
X149858332Y-73108332D02*
X149750000Y-73000000D01*
X153583332Y-58500000D02*
X153583332Y-50916668D01*
X158500000Y-46000000D02*
X159000000Y-46000000D01*
X152412500Y-79412500D02*
X149750000Y-76750000D01*
X216000000Y-79000000D02*
X211250000Y-83750000D01*
X211312500Y-58337500D02*
X215337500Y-58337500D01*
X153750000Y-66750000D02*
X150000000Y-66750000D01*
X153750000Y-79412500D02*
X152412500Y-79412500D01*
X198500000Y-45675000D02*
X211162500Y-58337500D01*
X215925000Y-72175000D02*
X216000000Y-72250000D01*
X150000000Y-66750000D02*
X149750000Y-66500000D01*
X216000000Y-65500000D02*
X216000000Y-72250000D01*
X153583332Y-50916668D02*
X158500000Y-46000000D01*
X211437500Y-78000000D02*
X215750000Y-78000000D01*
X149750000Y-73000000D02*
X149750000Y-66500000D01*
%TO.N,Net-(U1-DIS)*%
X188631000Y-97094000D02*
X190028000Y-95697000D01*
X186153000Y-97094000D02*
X188631000Y-97094000D01*
%TO.N,Net-(U1-Q)*%
X179661000Y-98364000D02*
X181203000Y-98364000D01*
X177328000Y-100697000D02*
X179661000Y-98364000D01*
%TO.N,Net-(SW1-B)*%
X181203000Y-99634000D02*
X181203000Y-101047000D01*
X181203000Y-99634000D02*
X182177999Y-99634000D01*
X184000000Y-96000000D02*
X184500000Y-96000000D01*
X181000000Y-101250000D02*
X181000000Y-101500000D01*
X181203000Y-101047000D02*
X181000000Y-101250000D01*
X191850000Y-114100000D02*
X191850000Y-112350000D01*
X181000000Y-101500000D02*
X191850000Y-112350000D01*
X184500000Y-96000000D02*
X184676000Y-95824000D01*
X184676000Y-95824000D02*
X186153000Y-95824000D01*
X184000000Y-97811999D02*
X184000000Y-96000000D01*
X182177999Y-99634000D02*
X184000000Y-97811999D01*
%TD*%
M02*
